{
	"asset":{
		"version":"2.0",
		"generator":"Houdini GLTF 2.0 Exporter"
	},
	"accessors":[
		{
			"bufferView":0,
			"componentType":5123,
			"count":13110,
			"type":"SCALAR",
			"min":[0
			],
			"max":[2214
			]
		},
		{
			"bufferView":1,
			"componentType":5126,
			"count":2215,
			"type":"VEC3",
			"min":[-4.38600445,-4.38600445,-0.0199999996
			],
			"max":[4.38594961,4.38600445,0.0199999996
			]
		}
	],
	"buffers":[
		{
			"uri":"system_grid_data.bin",
			"byteLength":52800
		}
	],
	"bufferViews":[
		{
			"buffer":0,
			"byteLength":26220,
			"target":34963
		},
		{
			"buffer":0,
			"byteOffset":26220,
			"byteLength":26580,
			"target":34962
		}
	],
	"nodes":[
		{
			"mesh":0
		}
	],
	"meshes":[
		{
			"primitives":[
				{
					"attributes":{
						"POSITION":1
					},
					"indices":0
				}
			]
		}
	],
	"scenes":[
		{
			"nodes":[0
			]
		}
	],
	"scene":0
}
